Patient4_TMGait_0pt3_03_left_31_EMG.mot
version=1
nRows=36
nColumns=33
inDegrees=no
endheader
time	1LAddLong	2LGlutMax	3LGlutMed	4LIliopsoas	5LSemiMemb	6LBicFemLong	7LRecFem	8LVastMed	9LVastLat	10LGasMed	11LTibAnt	12lTibPost	13LPeroneusLong	14LSol	15LExtDigLong	16LFlexDigLong	17RAddLong	18RGlutMax	19RGlutMed	20RIliopsoas	21RSemiMemb	22RBicFemLong	23RRecFem	24RVastMed	25RVastLat	26RGasMed	27RTibAnt	28RTibPost	29RPeroneusLong	30RSol	31RExtDigLong	32RFlexDigLong
56.955	0.006714	-0.087585	0.031586	0.034485	0.00351	-0.041351	-0.09964	0.013123	0.010223	0.001373	0.051727	0.019379	0.037079	0.028381	-0.027313	-0.015564	0.0737	0.012817	0.7164	-0.11826	-0.061951	-0.066071	0.23712	-0.47226	0.14313	-0.009918	0.024261	-0.012054	-0.43655	0.28717	-0.00061	-0.00473
56.956	0.004425	-0.087433	0.013428	0.041504	-0.000763	-0.037231	-0.11749	0.00885	0.016174	0.013275	0.025787	0.018616	-0.00824	0.058746	0.89218	-0.011597	0.066833	0.004272	-0.026703	0.011597	-0.002747	-0.094147	0.3656	-0.43991	0.15076	-0.008545	0.044098	-0.021973	-0.4422	0.16113	-0.003052	-0.008087
56.957	0.011902	-0.075226	0.009308	0.019531	0.00061	-0.059204	-0.10178	0.005341	0.008087	0.011749	0.002899	0.019684	0.028381	0.084839	-0.11948	-0.036621	0.08255	0.070648	-0.83496	0.12329	0.058136	-0.14313	0.3627	-0.51804	-0.13855	-0.010834	0.049286	-0.011749	-0.16205	-0.005188	-0.001678	-0.007629
56.958	0.007782	-0.078278	0.008392	-0.002136	-0.00061	-0.031891	-0.053711	0.004883	0.000763	0.005646	-0.07431	0.017853	0.062714	0.055389	-0.44723	-0.001373	0.085907	0.042114	-0.242	0.15091	0.069275	-0.15762	0.23758	-0.32638	-0.27588	0.001831	0.023804	-0.012512	0.7045	-0.085602	-0.001678	-0.015869
56.959	0.011749	-0.09079	-0.00885	0.000153	-0.004425	-0.047913	-0.020142	0.006104	0.007782	-0.011139	0.029755	0.017548	0.071869	0.06073	-0.9079	-0.017853	0.072937	0.12802	0.30365	0.10452	0.11108	-0.16052	0.067291	-0.006714	-0.39063	0.001526	0.05127	-0.019226	0.13962	-0.13077	-0.001068	-0.014038
56.96	0.006256	-0.092773	-0.017548	-0.020142	-0.010376	-0.044403	-0.014191	0	0.01297	-0.045013	0.30441	0.021667	0.021057	0.055084	0.043488	-0.021667	0.076904	0.10559	0.11154	-0.042267	0.084686	-0.079651	-0.020905	0.22919	-0.44647	-0.003967	0.047302	-0.017242	0.10651	-0.1001	-0.001678	-0.010071
56.961	0.00824	-0.096588	0	0.003815	-0.01358	-0.03891	-0.024261	-0.000153	0.011902	-0.032654	0.31357	0.021515	-0.019836	0.006561	0.026855	-0.016937	0.049133	0.006561	0.40482	-0.12253	-0.021057	0.036621	-0.27863	0.24597	-0.11185	-0.000916	0.002441	-0.014191	0.23773	-0.021057	-0.001526	-0.015259
56.962	0.005188	-0.082855	0.019531	0.014801	-0.010071	-0.035248	0.022583	-0.001984	0.014801	-0.034027	0.14801	0.02182	0.025787	-0.039063	0.03891	-0.022888	0.025635	0.028992	0.005951	-0.067749	0.024567	0.009308	-0.24246	0.41138	0.33005	-0.00473	0.051727	-0.015411	-0.52811	-0.011749	-0.003967	-0.016174
56.963	0.002899	-0.086365	0.019379	0.010071	-0.003967	-0.050354	0.031891	0.007324	0.003052	-0.031891	-0.091095	0.022278	0.046387	-0.045624	-0.1535	-0.038757	-0.033722	0.13992	0.41977	0.013428	-0.15915	0.026855	-0.031586	1.0042	0.578	-0.006409	0.045776	-0.011902	-0.49271	-0.050201	-0.002594	-0.010986
56.964	0.001831	-0.083008	-0.007172	0.027008	-0.006409	-0.045929	0.087433	0.003357	-0.004272	-0.015564	-0.14725	0.020142	0.027924	-0.005188	-0.35248	-0.027008	-0.027771	0.1535	-0.073395	0.050659	-0.43259	0.014954	0.3212	0.96497	0.62592	0.000305	0.035095	-0.015869	0.077209	-0.08255	-0.001678	-0.004272
56.965	0.005798	-0.078888	0.000153	-0.00946	0.004272	-0.046387	0.089417	0.00473	-0.000458	-0.006561	-0.074463	0.021515	-0.011902	-0.019379	-0.041199	-0.0354	0.024567	0.1181	0.072632	-0.015106	-0.49744	-0.009003	0.3418	0.56046	0.58121	0.003967	-0.010986	-0.008545	-0.42328	-0.095215	-0.002441	-0.009003
56.966	-0.005798	-0.046539	0.015106	-0.019531	-0.000458	-0.041504	0.1181	0.006104	-0.005798	0.010223	-0.046539	0.029602	-0.011902	-0.088501	0.074158	-0.022736	0.005035	0.24536	0.085907	-0.18738	-0.32959	0.026093	0.1384	0.068512	0.53238	0.007019	-0.050354	-0.014954	-0.69733	-0.093842	-0.002747	-0.007324
56.967	0.011597	-0.032196	0.007629	0.001831	-0.005188	-0.031586	0.12024	0.000916	-0.018768	0.021515	-0.11688	0.023804	0.010529	-0.15228	0.12558	-0.005035	-0.064087	0.29587	0.34332	-0.35477	0.3157	0.10819	-0.017395	-0.4747	0.3067	0.013885	-0.13794	-0.012054	0.95795	-0.11856	-0.008392	-0.002289
56.968	-0.002441	-0.027618	0.005188	0.013733	-0.014343	-0.022125	0.080109	0.052948	-0.019226	0.020294	-0.10086	0.021667	0.037384	-0.083008	0.12833	-0.012817	-0.14984	0.31342	0.098724	-0.23605	0.28076	0.11261	-0.11566	-0.74921	0.11826	0.018616	0.034637	-0.01236	1.0443	-0.19257	-0.004883	0.001526
56.969	-0.005188	-0.011292	0.045624	0.010071	-0.001831	-0.032501	0.039368	-0.010071	-0.017242	0.023956	-0.076599	0.02594	-0.012207	-0.01358	0.15091	-0.021973	-0.13321	0.37689	0.11124	-0.020599	0.25482	-0.014343	-0.21957	-1.1383	-0.1355	0.021362	0.1294	-0.02182	-0.21591	-0.079498	0.001221	0.001678
56.97	0.00473	-0.008698	0.023041	-0.005493	-0.001221	-0.019989	0.007629	0.009766	-0.010681	0.022583	-0.085754	0.018921	-0.01709	-0.007324	0.10086	-0.016327	-0.098724	0.3862	1.0738	0.18402	0.22446	-0.081177	-0.064697	-1.0725	-0.18433	0.022125	0.016174	-0.097046	-1.0103	0.11581	0.000305	-0.000153
56.971	0.007172	-0.050049	-0.003815	0.014038	-0.007477	-0.022125	-0.07782	0.00412	0.011749	0.006561	-0.10635	0.023804	0.015564	0.018463	0.093994	-0.016479	-0.066986	0.26764	1.7578	0.17761	0.13901	-0.080261	0.030212	-0.41458	0.42267	-0.02533	-0.005188	-0.19836	-0.67139	-0.083466	-0.010223	-0.002441
56.972	0.005493	-0.042114	0.025024	-0.011597	-0.001984	0.002289	-0.13458	0.002594	0.018005	0.009308	-0.055237	0.023499	0.021667	0.007935	0.13275	-0.015869	-0.075531	0.059509	0.057373	0.18143	0.062561	-0.048828	0.0914	-0.019531	0.61706	-0.025635	-0.038757	0.18616	0.16113	-0.34973	-0.001373	-0.009003
56.973	0.008087	-0.045166	0.1059	-0.001221	-0.006866	-0.02121	-0.089569	-0.00412	0.018463	0.019836	-0.025482	0.023041	0.013123	-0.038757	0.11566	-0.000763	-0.070496	0.081329	-0.5307	0.071869	0.031738	-0.020599	-0.001068	-0.19714	0.61508	-0.031738	-0.015106	0.049744	-0.11108	-0.10529	-0.00061	-0.012512
56.974	0.006409	-0.035248	0.012817	-0.016937	-0.002136	-0.012512	-0.09491	-0.001831	0.022583	0.026703	-0.027161	0.026245	0.01297	-0.063019	0.13214	0.008087	-0.048065	0.001984	-0.67566	0.095673	0.020447	-0.036469	0.066681	-0.053558	0.44296	-0.027313	0.065002	0.011292	-1.0069	0.10757	-0.003357	-0.014191
56.975	0.000153	0.005646	0.02655	0.007935	-0.010376	0.001526	-0.082245	0.00351	0.011902	0.014496	-0.010071	0.025482	0.019226	-0.052948	0.079193	-0.001678	-0.032959	-0.023804	0.097198	0.048981	0.031738	-0.04776	0.007172	0.068817	-0.21454	-0.015869	0.037231	-0.22079	-0.31891	-0.22995	-0.001984	-0.019836
56.976	0.00351	-0.00412	0.025482	-0.003357	-0.00412	-0.004578	-0.041351	0.008698	0.013733	0.021362	-0.007019	0.031738	0.021362	-0.054474	0.018616	-0.015717	-0.043945	-0.061188	0.69794	0.010834	0.042877	0.019226	-0.12955	0.044556	-0.79193	-0.016785	-0.002289	-0.021362	0.59067	-0.65308	-0.003052	-0.017242
56.977	0.007477	-0.031586	0.026245	0.021057	-0.006561	-0.003204	0.043945	0.00946	0.01709	0.007782	0.012665	0.029144	0.024261	-0.02655	-0.024109	-0.010834	-0.05188	-0.22171	0.19089	0.079346	0.026855	-0.014954	-0.073242	0.7785	-1.1711	-0.029755	-0.063934	0.12314	1.2543	-0.54291	-0.002899	-0.014954
56.978	0.003204	-0.027161	0.016632	0.027161	-0.001526	-0.016022	0.072174	0.003815	0.010529	-0.00946	0.024414	0.024414	0.02655	0.000153	-0.082703	0.014038	-0.028534	-0.32196	-0.29388	0.1564	0.01358	-0.016479	0.19608	1.7413	-1.2332	-0.02533	-0.038757	0.11017	1.3913	0.20203	-0.002594	-0.010071
56.979	0.007172	-0.025787	-0.007935	-0.010376	-0.005188	-0.028381	0.042877	0.003967	0.010223	0.009766	0.096588	0.024567	0.00824	0.008545	0.13062	0.011597	-0.009155	-0.20874	-0.79147	0.089569	0.012207	-0.021667	0.16556	1.7265	-0.86517	-0.015259	0.018311	0.1268	-0.59494	0.81009	0.001068	-0.016174
56.98	0.00946	-0.031586	0.01358	-0.015564	0.000916	-0.017242	0.011444	0.005798	0.012207	0.011597	0.12924	0.026093	-0.021667	0.020752	0.38422	0.021057	0.009308	-0.26032	-0.41153	0.037231	-0.018311	-0.042877	0.08255	0.8786	-0.53497	-0.005341	0.022278	-0.19348	-0.69397	0.54001	0.004272	-0.010376
56.981	0.007324	0.007019	0.023804	0.012054	0.000458	-0.009613	0.027466	0.005493	0.019684	0.039063	0.14099	0.018616	-0.0383	0.020752	0.26398	0.003052	0.053711	-0.21484	-0.061951	-0.10391	-0.098114	-0.037994	-0.056152	-0.44891	-0.11597	0.001526	-0.24948	-0.027313	0.91232	-0.089569	0.001526	-0.004883
56.982	0.003357	-0.000763	0.024719	0.002441	-0.005493	0.012665	0.016632	0.011292	0.020599	0.037079	-0.079193	0.026703	-0.032959	-0.005493	-0.34927	0.008698	0.067902	-0.224	-0.19577	-0.12161	-0.23178	0.043488	-0.19852	-1.1757	0.29068	-0.000763	-0.046692	0.062714	1.1397	-0.05249	0.000153	-0.005493
56.983	0.00061	-0.019989	-0.010376	0.01297	-0.007935	0.006866	-0.005341	0.006714	0.014648	-0.007324	-0.11444	0.026855	-0.002747	0.001068	-0.13214	0.028687	0.050659	-0.23727	-0.73868	-0.056458	-0.14664	0.075989	-0.215	-1.5466	0.71411	-0.002441	-0.024872	0.023956	1.0411	-0.036011	0.001678	-0.012207
56.984	0.006714	-0.037689	-0.030518	-0.00824	-0.006714	0.014038	0.018158	0.001831	0.00061	0.003204	-0.06134	0.022583	-0.010529	0.019684	-0.056	0.010376	0.032806	-0.15854	-1.2524	-0.014343	0.028076	0.040283	-0.083466	-1.3094	1.1928	0.001831	-0.02655	-0.005646	0.90393	-0.027924	-0.000305	-0.004883
56.985	0.007782	-0.026703	-0.07309	0.012665	-0.005341	0.017548	0.034332	0.006866	0.000458	0.001831	-0.025787	0.026703	-0.02182	0.00885	-0.035553	0.019226	0.023499	-0.068054	-0.83344	0.050812	0.34393	0.025787	-0.000153	-0.66757	1.2512	0.010834	-0.026398	-0.014954	-0.12436	0.039825	-0.002441	-0.00061
56.986	-0.001221	-0.018311	-0.071564	0.001221	-0.005341	0.027466	0.037689	0.008392	-0.015869	-0.006561	0.11765	0.022125	-0.020447	0.002747	-0.097504	0.023346	0.016022	-0.061188	0.12589	0.10162	0.18219	0.079498	0.10407	-0.392	1.1089	0.003357	0.040894	-0.009918	-0.11673	0.10269	0.000153	-0.002441
56.987	0.008392	-0.017853	-0.085144	-0.001221	-0.005493	0.027466	0.046997	0.005493	-0.014038	-0.032196	0.16708	0.024414	0.014954	0.004272	-0.14099	0.040741	0.040894	-0.094299	0.52826	0.069122	0.009918	0.11185	-0.012665	-0.11627	0.25421	0.000305	0.085602	-0.027618	-0.38589	0.16068	-0.001678	-0.001831
56.988	0.003662	-0.020905	-0.043793	0.028992	-0.009155	0.02121	0.038605	0.001678	-0.031281	-0.044098	0.014801	0.016479	0.069122	-0.001526	-0.26443	0.015869	0.03418	-0.075531	0.34607	-0.069427	-0.014496	0.19348	-0.21271	0.23071	-0.33569	0.001221	-0.055389	-0.026093	-0.64774	0.12772	-0.001373	-0.00885
56.989	-0.005493	-0.029297	-0.006561	0.005188	-0.000458	0.019226	0.049896	-0.005951	-0.020905	-0.006256	-0.11841	0.023041	0.001678	0.013275	-0.056	0.020599	0.050201	-0.016327	0.18875	-0.10223	-0.062103	0.1239	-0.13962	0.22507	-0.36667	-0.000916	-0.054932	-0.020599	-0.91995	0.019684	-0.004425	-0.003052
56.99	0.005035	-0.026703	0.021667	-0.015717	0.004272	0.02655	0.027771	-0.003204	-0.015259	-0.00061	-0.16937	0.015106	-0.025024	0.023956	0.16708	0.026703	0.056152	0.024872	-0.19913	-0.06073	-0.072021	0.009003	-0.06485	0.79636	-0.17456	0.002594	-0.039215	-0.024109	-0.53116	0.023651	0.002594	-0.001678
